<?xml version="1.0"?>
<svg xmlns="http://www.w3.org/2000/svg" xmlns:xlink="http://www.w3.org/1999/xlink" xmlns:svgjs="http://svgjs.com/svgjs" version="1.1" width="512" height="512" x="0" y="0" viewBox="0 0 512.026 512.026" style="enable-background:new 0 0 512 512" xml:space="preserve" class=""><g>
<g xmlns="http://www.w3.org/2000/svg" transform="translate(0 -1)">
	<g>
		<g>
			<path d="M460.813,1h-307.2c-14.132,0.015-25.585,11.468-25.6,25.6l0.001,0.004l-0.001,0.004v290.133H34.146     c-2.264-0.001-4.435,0.897-6.035,2.498c-1.601,1.601-2.499,3.772-2.498,6.035v127.992c-0.006,32.99,26.726,59.742,59.716,59.759     c0.6,0,1.208-0.009,1.808-0.025H426.68c32.973-0.04,59.693-26.76,59.733-59.733V26.601C486.398,12.468,474.945,1.015,460.813,1z      M86.629,495.933c-11.554,0.458-22.781-3.899-31-12.033c-8.312-8.019-12.989-19.084-12.95-30.633l0-119.458h85.334v117.325     C128.405,474.726,110.179,494.457,86.629,495.933z M469.346,453.267c-0.028,23.553-19.114,42.639-42.667,42.667h-300.45     c12.039-11.8,18.831-27.943,18.85-44.8V26.609l-0.001-0.004l0.001-0.004c0.003-4.712,3.822-8.53,8.533-8.533h307.2     c4.711,0.003,8.53,3.822,8.533,8.533V453.267z" fill="#457b98" data-original="#000000" style="" class=""/>
			<path d="M435.213,129.009h-59.733c-4.713,0-8.533,3.82-8.533,8.533s3.82,8.533,8.533,8.533h59.733     c4.713,0,8.533-3.82,8.533-8.533S439.926,129.009,435.213,129.009z" fill="#457b98" data-original="#000000" style="" class=""/>
			<path d="M435.213,60.742h-59.733c-4.713,0-8.533,3.82-8.533,8.533s3.82,8.533,8.533,8.533h59.733c4.713,0,8.533-3.82,8.533-8.533     S439.926,60.742,435.213,60.742z" fill="#457b98" data-original="#000000" style="" class=""/>
			<path d="M435.213,94.875h-59.733c-4.713,0-8.533,3.82-8.533,8.533s3.82,8.533,8.533,8.533h59.733c4.713,0,8.533-3.82,8.533-8.533     S439.926,94.875,435.213,94.875z" fill="#457b98" data-original="#000000" style="" class=""/>
			<path d="M435.213,163.142h-59.733c-4.713,0-8.533,3.82-8.533,8.533s3.82,8.533,8.533,8.533h59.733     c4.713,0,8.533-3.82,8.533-8.533S439.926,163.142,435.213,163.142z" fill="#457b98" data-original="#000000" style="" class=""/>
			<path d="M435.213,197.275h-59.733c-4.713,0-8.533,3.82-8.533,8.533s3.82,8.533,8.533,8.533h59.733     c4.713,0,8.533-3.821,8.533-8.533S439.926,197.275,435.213,197.275z" fill="#457b98" data-original="#000000" style="" class=""/>
			<path d="M435.213,231.409H170.679c-4.713,0-8.533,3.82-8.533,8.533s3.82,8.533,8.533,8.533h264.533     c4.713,0,8.533-3.82,8.533-8.533S439.926,231.409,435.213,231.409z" fill="#457b98" data-original="#000000" style="" class=""/>
			<path d="M435.213,265.542H170.679c-4.713,0-8.533,3.821-8.533,8.533c0,4.713,3.82,8.533,8.533,8.533h264.533     c4.713,0,8.533-3.821,8.533-8.533C443.746,269.362,439.926,265.542,435.213,265.542z" fill="#457b98" data-original="#000000" style="" class=""/>
			<path d="M435.213,299.675H324.279c-4.713,0-8.533,3.82-8.533,8.533s3.82,8.533,8.533,8.533h110.933     c4.713,0,8.533-3.82,8.533-8.533S439.926,299.675,435.213,299.675z" fill="#457b98" data-original="#000000" style="" class=""/>
			<path d="M273.079,299.675h-102.4c-4.713,0-8.533,3.82-8.533,8.533s3.82,8.533,8.533,8.533h102.4c4.713,0,8.533-3.82,8.533-8.533     S277.792,299.675,273.079,299.675z" fill="#457b98" data-original="#000000" style="" class=""/>
			<path d="M435.213,333.809H324.279c-4.713,0-8.533,3.821-8.533,8.533s3.82,8.533,8.533,8.533h110.933     c4.713,0,8.533-3.82,8.533-8.533S439.926,333.809,435.213,333.809z" fill="#457b98" data-original="#000000" style="" class=""/>
			<path d="M273.079,333.809h-102.4c-4.713,0-8.533,3.821-8.533,8.533s3.82,8.533,8.533,8.533h102.4c4.713,0,8.533-3.82,8.533-8.533     S277.792,333.809,273.079,333.809z" fill="#457b98" data-original="#000000" style="" class=""/>
			<path d="M435.213,367.942H324.279c-4.713,0-8.533,3.82-8.533,8.533s3.82,8.533,8.533,8.533h110.933     c4.713,0,8.533-3.82,8.533-8.533S439.926,367.942,435.213,367.942z" fill="#457b98" data-original="#000000" style="" class=""/>
			<path d="M273.079,367.942h-102.4c-4.713,0-8.533,3.82-8.533,8.533s3.82,8.533,8.533,8.533h102.4c4.713,0,8.533-3.82,8.533-8.533     S277.792,367.942,273.079,367.942z" fill="#457b98" data-original="#000000" style="" class=""/>
			<path d="M435.213,402.075H324.279c-4.713,0-8.533,3.82-8.533,8.533s3.82,8.533,8.533,8.533h110.933     c4.713,0,8.533-3.82,8.533-8.533S439.926,402.075,435.213,402.075z" fill="#457b98" data-original="#000000" style="" class=""/>
			<path d="M273.079,402.075h-102.4c-4.713,0-8.533,3.82-8.533,8.533s3.82,8.533,8.533,8.533h102.4c4.713,0,8.533-3.82,8.533-8.533     S277.792,402.075,273.079,402.075z" fill="#457b98" data-original="#000000" style="" class=""/>
			<path d="M435.213,436.209H324.279c-4.713,0-8.533,3.82-8.533,8.533s3.82,8.533,8.533,8.533h110.933     c4.713,0,8.533-3.82,8.533-8.533S439.926,436.209,435.213,436.209z" fill="#457b98" data-original="#000000" style="" class=""/>
			<path d="M273.079,436.209h-102.4c-4.713,0-8.533,3.82-8.533,8.533s3.82,8.533,8.533,8.533h102.4c4.713,0,8.533-3.82,8.533-8.533     S277.792,436.209,273.079,436.209z" fill="#457b98" data-original="#000000" style="" class=""/>
			<path d="M170.679,147.395v49.88c0.012,9.421,7.646,17.054,17.067,17.067h136.533c9.421-0.012,17.054-7.646,17.067-17.067v-49.88     c5.426-5.002,8.518-12.04,8.533-19.42v-33.1c-0.012-9.421-7.646-17.054-17.067-17.067h-17.067V60.742     c-0.012-9.421-7.646-17.054-17.067-17.067h-85.333c-9.421,0.012-17.054,7.646-17.067,17.067v17.067h-17.067     c-9.421,0.012-17.054,7.646-17.067,17.067v33.1C162.161,135.355,165.254,142.393,170.679,147.395z M324.279,197.275H187.746     v-42.771c0.35,0.013,0.679,0.104,1.033,0.104h58.7v8.533c0,4.713,3.82,8.533,8.533,8.533c4.713,0,8.533-3.82,8.533-8.533v-8.533     h58.7c0.354,0,0.683-0.092,1.033-0.104V197.275z M213.346,60.742h85.333v17.067h-85.333V60.742z M179.213,94.875h153.6v33.1     c-0.006,5.281-4.286,9.561-9.567,9.567H188.779c-5.281-0.006-9.561-4.286-9.567-9.567V94.875z" fill="#457b98" data-original="#000000" style="" class=""/>
		</g>
	</g>
</g>
<g xmlns="http://www.w3.org/2000/svg">
</g>
<g xmlns="http://www.w3.org/2000/svg">
</g>
<g xmlns="http://www.w3.org/2000/svg">
</g>
<g xmlns="http://www.w3.org/2000/svg">
</g>
<g xmlns="http://www.w3.org/2000/svg">
</g>
<g xmlns="http://www.w3.org/2000/svg">
</g>
<g xmlns="http://www.w3.org/2000/svg">
</g>
<g xmlns="http://www.w3.org/2000/svg">
</g>
<g xmlns="http://www.w3.org/2000/svg">
</g>
<g xmlns="http://www.w3.org/2000/svg">
</g>
<g xmlns="http://www.w3.org/2000/svg">
</g>
<g xmlns="http://www.w3.org/2000/svg">
</g>
<g xmlns="http://www.w3.org/2000/svg">
</g>
<g xmlns="http://www.w3.org/2000/svg">
</g>
<g xmlns="http://www.w3.org/2000/svg">
</g>
</g></svg>
